<svg xmlns="http://www.w3.org/2000/svg" width="143.573" height="37.352" viewBox="0 0 143.573 37.352"><g transform="translate(-106.913 -401)"><path d="M543.571,453.261a9.993,9.993,0,0,0-2.941,3.551l.8-4.7h-5.562l-3.125,18.628h5.846l1.257-7.468c1-5.934,7.639-5.061,7.37-5.175l1.088-5.972a1.476,1.476,0,0,0-.234-.019c-.233-.019-.469-.025-.7-.025a6.439,6.439,0,0,0-3.8,1.182" transform="translate(-345.484 -41.442)" fill="#001438"/><path d="M730.431,452.571a8.8,8.8,0,0,0-2.809,2.606,3.855,3.855,0,0,0-1.422-2.6,5.162,5.162,0,0,0-3.178-.865,6.332,6.332,0,0,0-3.365.921,10,10,0,0,0-2.882,2.873l.652-3.7h-5.81l-3.131,18.628H714.2l1.268-7.537c.443-2.638.695-3.651,1.273-4.479a2.883,2.883,0,0,1,2.52-1.25,1.632,1.632,0,0,1,1.7.9,6.8,6.8,0,0,1-.028,3.315l-1.389,9.055h5.681l1.267-7.537c.44-2.612.762-3.619,1.331-4.46a2.831,2.831,0,0,1,2.505-1.268,1.648,1.648,0,0,1,1.706.908,6.826,6.826,0,0,1-.02,3.3l-1.463,9.055h5.826l1.727-10.268.067-.405a20.042,20.042,0,0,0,.384-3.787,4.952,4.952,0,0,0-.523-2.047,3.847,3.847,0,0,0-1.613-1.667,5.337,5.337,0,0,0-2.536-.554,6.982,6.982,0,0,0-3.446.859" transform="translate(-488.069 -41.144)" fill="#001438"/><path d="M130.9,401h-7.5l-16.492,36.037h6.409l5.21-12.641h9.355l.426,4.906h6.579Zm-8.928,17.736s3.321-7.539,3.481-7.957c.032.6.677,7.957.677,7.957Z" transform="translate(0 0)" fill="#001438"/><path d="M346.129,417.047H349.3l-1.963,12.6h5.791l1.944-12.6h7.489l1.106-6.012h-7.424l1.664-9.6h-5.8l-1.534,9.6H347.2" transform="translate(-194.082 -0.355)" fill="#001438"/><path d="M434.75,401.438l-1.277,7.6-.367,2.181-.993,5.905h0L430,429.651h5.78l1.123-6.678c.106-.642.209-1.183.441-2.126,1.286-5.23,6.649-4.8,6.149-.274-.056.5-1.458,9.078-1.458,9.078h5.894l1.728-10.274a21.006,21.006,0,0,0,.385-3.969,5.17,5.17,0,0,0-.56-2.264A4.058,4.058,0,0,0,447.7,411.5a6.291,6.291,0,0,0-2.783-.572,7.357,7.357,0,0,0-3.744.964,10.2,10.2,0,0,0-3.118,3.03c.144-.454.274-.958.4-1.518s.246-1.164.357-1.823l1.708-10.138Z" transform="translate(-262.127 -0.355)" fill="#001438"/><path d="M629.311,455.88a8.02,8.02,0,0,0-1.5-3.228,7.009,7.009,0,0,0-2.636-2.115,8.247,8.247,0,0,0-3.474-.709,10.088,10.088,0,0,0-3.73.709,10.892,10.892,0,0,0-3.329,2.115,12.151,12.151,0,0,0-2.561,3.21,11.869,11.869,0,0,0-1.328,3.806,10,10,0,0,0,.054,3.8,7.692,7.692,0,0,0,1.483,3.178,7.04,7.04,0,0,0,2.629,2.152,8.078,8.078,0,0,0,3.471.727,9.7,9.7,0,0,0,3.676-.727,11.791,11.791,0,0,0,3.392-2.152,12.548,12.548,0,0,0,2.574-3.209,11.584,11.584,0,0,0,1.337-3.77A9.876,9.876,0,0,0,629.311,455.88Zm-5.994,3.808a5.817,5.817,0,0,1-1.45,3.17,3.586,3.586,0,0,1-2.69,1.153,2.519,2.519,0,0,1-2.319-1.153,4.544,4.544,0,0,1-.372-3.17,5.871,5.871,0,0,1,1.452-3.184,3.58,3.58,0,0,1,2.7-1.159,2.508,2.508,0,0,1,2.3,1.159A4.53,4.53,0,0,1,623.317,459.688Z" transform="translate(-408.649 -39.615)" fill="#001438"/><path d="M272.482,453.39a9.981,9.981,0,0,0-2.94,3.551l.807-4.727H264.8l-3.138,18.628H267.5l1.252-7.444c1-5.934,7.64-5.062,7.37-5.176l1.088-5.972a1.475,1.475,0,0,0-.233-.018c-.233-.019-.469-.025-.7-.025a6.44,6.44,0,0,0-3.8,1.182" transform="translate(-125.551 -41.546)" fill="#001438"/><g transform="translate(152.241 431.031)"><path d="M347.156,571.643l.611-.732a2.154,2.154,0,0,0,1.4.57c.423,0,.678-.168.678-.443v-.013c0-.262-.161-.4-.946-.6-.946-.242-1.557-.5-1.557-1.436v-.014a1.469,1.469,0,0,1,1.644-1.416,2.719,2.719,0,0,1,1.745.6l-.537.778a2.205,2.205,0,0,0-1.221-.463c-.4,0-.6.181-.6.409v.013c0,.309.2.409,1.013.617.953.248,1.49.591,1.49,1.41v.013c0,.933-.711,1.456-1.725,1.456A2.99,2.99,0,0,1,347.156,571.643Z" transform="translate(-347.156 -566.167)" fill="#001438"/><path d="M370.528,569.935v-.013a2.5,2.5,0,0,1,4.993-.014v.014a2.5,2.5,0,0,1-4.993.013Zm3.913,0v-.013a1.427,1.427,0,0,0-1.423-1.476,1.4,1.4,0,0,0-1.409,1.463v.014a1.427,1.427,0,0,0,1.423,1.476A1.4,1.4,0,0,0,374.441,569.935Z" transform="translate(-366.118 -566.109)" fill="#001438"/><path d="M401.869,567.918H402.9v3.758h2.342v.94h-3.376Z" transform="translate(-391.546 -566.455)" fill="#001438"/><path d="M422.787,570.6v-2.684h1.034v2.658c0,.765.382,1.161,1.013,1.161s1.013-.383,1.013-1.127v-2.691h1.033v2.651a1.891,1.891,0,0,1-2.06,2.121A1.864,1.864,0,0,1,422.787,570.6Z" transform="translate(-408.517 -566.455)" fill="#001438"/><path d="M450.265,573.075l.537-.792a2.363,2.363,0,0,1-1.832-2.349v-.013a2.387,2.387,0,0,1,2.45-2.429,2.425,2.425,0,0,1,1.852.725l-.658.758a1.733,1.733,0,0,0-1.2-.53,1.391,1.391,0,0,0-1.362,1.463v.014a1.4,1.4,0,0,0,1.362,1.476,1.694,1.694,0,0,0,1.235-.55l.658.664a2.366,2.366,0,0,1-1.751.832l-.436,1.087Z" transform="translate(-429.76 -566.109)" fill="#001438"/><path d="M475.224,563.989v-.013a2.5,2.5,0,0,1,4.993-.014v.014a2.5,2.5,0,0,1-4.993.013Zm3.912,0v-.013a1.427,1.427,0,0,0-1.423-1.476,1.4,1.4,0,0,0-1.409,1.463v.014a1.427,1.427,0,0,0,1.423,1.476A1.4,1.4,0,0,0,479.136,563.989Zm-2.8-2.832c.154-.564.362-.926.832-.926.416,0,.765.262,1.007.262.208,0,.288-.114.382-.329l.544.168c-.154.564-.362.926-.832.926-.416,0-.765-.262-1.007-.262-.208,0-.289.114-.383.329Z" transform="translate(-451.061 -560.164)" fill="#001438"/><path d="M506.564,567.918h3.544v.919h-2.517v.953h2.214v.919h-2.214v.986h2.55v.919h-3.577Z" transform="translate(-476.487 -566.455)" fill="#001438"/><path d="M528.692,571.643l.611-.732a2.154,2.154,0,0,0,1.4.57c.423,0,.678-.168.678-.443v-.013c0-.262-.161-.4-.946-.6-.946-.242-1.557-.5-1.557-1.436v-.014a1.469,1.469,0,0,1,1.644-1.416,2.719,2.719,0,0,1,1.745.6l-.537.778a2.2,2.2,0,0,0-1.221-.463c-.4,0-.6.181-.6.409v.013c0,.309.2.409,1.013.617.953.248,1.49.591,1.49,1.41v.013c0,.933-.711,1.456-1.725,1.456A2.99,2.99,0,0,1,528.692,571.643Z" transform="translate(-494.44 -566.167)" fill="#001438"/><path d="M563.839,567.918h3.543v.919h-2.517v.953h2.215v.919h-2.215v.986h2.55v.919h-3.577Z" transform="translate(-522.956 -566.455)" fill="#001438"/><path d="M587.674,567.918h1.114l1.235,1.987,1.235-1.987h1.114v4.7h-1.027v-3.067l-1.322,2.007H590l-1.308-1.986v3.047h-1.013Z" transform="translate(-542.294 -566.455)" fill="#001438"/><path d="M628.122,569.935v-.013a2.5,2.5,0,0,1,4.993-.014v.014a2.5,2.5,0,0,1-4.993.013Zm3.912,0v-.013a1.427,1.427,0,0,0-1.423-1.476,1.4,1.4,0,0,0-1.409,1.463v.014a1.427,1.427,0,0,0,1.423,1.476A1.4,1.4,0,0,0,632.034,569.935Z" transform="translate(-575.11 -566.109)" fill="#001438"/><path d="M659.463,567.918h2.147a1.872,1.872,0,0,1,1.369.477,1.475,1.475,0,0,1,.4,1.074v.013a1.459,1.459,0,0,1-1.007,1.457l1.148,1.678h-1.208l-1.007-1.5H660.5v1.5h-1.033Zm2.08,2.282c.5,0,.792-.269.792-.664v-.013c0-.443-.308-.672-.812-.672H660.5V570.2Z" transform="translate(-600.538 -566.455)" fill="#001438"/><path d="M684.833,568.871H683.4v-.953H687.3v.953h-1.429v3.745h-1.034Z" transform="translate(-619.962 -566.455)" fill="#001438"/><path d="M706.064,569.935v-.013a2.5,2.5,0,0,1,4.993-.014v.014a2.5,2.5,0,0,1-4.993.013Zm3.913,0v-.013a1.427,1.427,0,0,0-1.423-1.476,1.4,1.4,0,0,0-1.409,1.463v.014a1.427,1.427,0,0,0,1.423,1.476A1.4,1.4,0,0,0,709.977,569.935Z" transform="translate(-638.346 -566.109)" fill="#001438"/><path d="M737.405,567.918h1.919a1.609,1.609,0,0,1,1.8,1.624v.014a1.679,1.679,0,0,1-1.9,1.651h-.785v1.409h-1.034Zm1.852,2.369a.727.727,0,0,0,.818-.712v-.013c0-.463-.322-.712-.839-.712h-.8v1.437Z" transform="translate(-663.774 -566.455)" fill="#001438"/><path d="M761.169,567.918h3.543v.919H762.2v.953h2.215v.919H762.2v.986h2.55v.919h-3.577Z" transform="translate(-683.054 -566.455)" fill="#001438"/><path d="M785,567.918h1.832a2.341,2.341,0,0,1,2.5,2.335v.014a2.352,2.352,0,0,1-2.5,2.349H785Zm1.832,3.765a1.339,1.339,0,0,0,1.416-1.4v-.013a1.35,1.35,0,0,0-1.416-1.416h-.8v2.832Z" transform="translate(-702.392 -566.455)" fill="#001438"/><path d="M813.072,567.918h1.033v4.7h-1.033Z" transform="translate(-725.164 -566.455)" fill="#001438"/><path d="M824.656,567.74h.953l2.013,4.731h-1.08l-.43-1.053h-1.986l-.429,1.053h-1.054Zm1.087,2.765-.624-1.523-.624,1.523Z" transform="translate(-732.93 -566.311)" fill="#001438"/></g></g></svg>